<svg id="图层_1" data-name="图层 1" xmlns="http://www.w3.org/2000/svg" viewBox="0 0 1164.41 302.86"><defs><style>.cls-1{fill:#231815;}.cls-2{fill:#1463a4;}</style></defs><title>种子创客</title><path class="cls-1" d="M401.35,243.42l21.88,68.68,23.07-68.68h27.29v87.92h-17.8V265.43l-22.94,65.91H413.61l-21.75-65.91v65.91h-17.8V243.42Z" transform="translate(-18.36 -164.23)"/><path class="cls-1" d="M483.07,331.34l36.38-87.92h21.49l36.38,87.92H555.44L546.88,311H513.52L505,331.34Zm47.19-66.7-12.52,30.71h25Z" transform="translate(-18.36 -164.23)"/><path class="cls-1" d="M605.53,243.42v87.92H586.81V243.42Zm.66,43.5,33.61-43.5h24.65l-36.78,43.5,35.06,44.42H638.09Z" transform="translate(-18.36 -164.23)"/><path class="cls-1" d="M739.59,243.42v15.69H715.21q-9.49,0-13.84,1.32a14.07,14.07,0,0,0-7.25,5.14,15.86,15.86,0,0,0-2.7,5.27,55.59,55.59,0,0,0-1.25,9h49.43v15.69H690.16q1.05,11.34,6.72,15.75t19.25,4.42h23.46v15.69H715.21a112.65,112.65,0,0,1-17.4-1.19q-11.87-2-18.85-10.41-10-12.13-10-32.82,0-22.94,14.11-35.72a28.21,28.21,0,0,1,10.35-6.06q5.47-1.71,14.7-1.71Z" transform="translate(-18.36 -164.23)"/><path class="cls-1" d="M773.08,298v33.35H754.36V243.42h43q18.45,0,25.7,4.75a21.41,21.41,0,0,1,7.71,8.37,24.41,24.41,0,0,1,2.7,11.4q0,12.52-6.33,19.38a24.94,24.94,0,0,1-10.41,6.2,29,29,0,0,1,7.78,3.89,18.43,18.43,0,0,1,4.75,6,29.92,29.92,0,0,1,2.31,6.07,53.35,53.35,0,0,1,1.12,8.57q.79,9.49,2.11,13.31h-21a85.54,85.54,0,0,1-2-12.52q-.66-7.65-2.7-11.73a15.26,15.26,0,0,0-6.13-6.46q-5.14-2.77-14.9-2.64Zm0-15.69h26.23q6.59,0,9.36-2,4.22-2.9,4.22-10.15,0-8-6.33-10.28a23.87,23.87,0,0,0-7.25-.79H773.08Z" transform="translate(-18.36 -164.23)"/><path class="cls-2" d="M848.08,331.34V315.66h40.2q9.62,0,12.79-1.85a9.06,9.06,0,0,0,4.61-8.31q0-6.46-5.4-9.36-3-1.71-9.75-1.71H874.18q-14.9,0-21.49-5.4a23.57,23.57,0,0,1-6.39-8.57A26.72,26.72,0,0,1,844,269.39a28.57,28.57,0,0,1,5.4-16.87q5.27-7.38,16.87-8.7,4-.4,11.73-.39h43.63v15.69H882.22q-8.83.13-11.73.79-5.93,1.45-5.93,9,0,6.33,5,8.44,3.29,1.58,11.07,1.58h14.11q10.81,0,16.08,1.85,9.36,3.16,12.92,11.07a33.51,33.51,0,0,1,2.77,13.58,28,28,0,0,1-3.69,14.37,21.29,21.29,0,0,1-15.42,10.81,105.93,105.93,0,0,1-15.16.79Z" transform="translate(-18.36 -164.23)"/><path class="cls-2" d="M1006,243.42v15.69H981.61q-9.49,0-13.84,1.32a14.07,14.07,0,0,0-7.25,5.14,15.86,15.86,0,0,0-2.7,5.27,55.59,55.59,0,0,0-1.25,9H1006v15.69H956.57q1.05,11.34,6.72,15.75t19.25,4.42H1006v15.69H981.61a112.65,112.65,0,0,1-17.4-1.19q-11.87-2-18.85-10.41-10-12.13-10-32.82,0-22.94,14.11-35.72a28.21,28.21,0,0,1,10.35-6.06q5.47-1.71,14.7-1.71Z" transform="translate(-18.36 -164.23)"/><path class="cls-2" d="M1086.67,243.42v15.69h-24.39q-9.49,0-13.84,1.32a14.07,14.07,0,0,0-7.25,5.14,15.86,15.86,0,0,0-2.7,5.27,55.59,55.59,0,0,0-1.25,9h49.43v15.69h-49.43q1.05,11.34,6.72,15.75t19.25,4.42h23.46v15.69h-24.39a112.65,112.65,0,0,1-17.4-1.19q-11.87-2-18.85-10.41-10-12.13-10-32.82,0-22.94,14.11-35.72a28.21,28.21,0,0,1,10.35-6.06q5.47-1.71,14.7-1.71Z" transform="translate(-18.36 -164.23)"/><path class="cls-2" d="M1101.44,243.42h37.3q14,0,21.62,2.77,14.1,5.14,18.85,18.85a70,70,0,0,1,3.56,22.54,72.09,72.09,0,0,1-3.43,22.41q-3.43,10.81-11.34,16a31.11,31.11,0,0,1-11,4.28q-6,1.12-18.26,1.12h-37.3Zm18.72,15.69v56.55h18.59q12.26,0,17-5.4a25.83,25.83,0,0,0,4.68-9.62,47.51,47.51,0,0,0,1.78-13.18,45.69,45.69,0,0,0-2.11-14.24q-2.11-6.46-5.54-9.62-5-4.48-15.82-4.48Z" transform="translate(-18.36 -164.23)"/><path class="cls-2" d="M442,384v8.27h9.45v7.26H442v36.28h-8.77V399.57H423v-7.26h10.21v-7.93l-9.11.25V377l27.25-.93v7.68Zm-18.9,51.81,1.6-33.07h6.58l-1.6,33.07Zm27.09-33.07,1.6,33.07h-6.67l-1.52-33.07Zm47,13.5a8.45,8.45,0,0,1-.76,3.58,10,10,0,0,1-2,2.91,9.27,9.27,0,0,1-3,2,9,9,0,0,1-3.54.72h-6.24v10.89H470.22V425.47H454.36V379.65h15.86v-3.71h11.39v3.71h15.53v36.62ZM470.22,418v-31h-6.41v31ZM485,418a2.6,2.6,0,0,0,2.62-2.62V387.08h-6v31Z" transform="translate(-18.36 -164.23)"/><path class="cls-2" d="M588.6,400.75h23.12v8.69H584.39v19.49a7.49,7.49,0,0,1-7.51,7.51H558.82l2.53-6.92h9.79a1.87,1.87,0,0,0,1.35-.59,1.6,1.6,0,0,0,.51-1.35V409.44H537.9v-8.69h36.37l15.1-16.2H543.55v-8.69h62.18v6.58Z" transform="translate(-18.36 -164.23)"/><path class="cls-1" d="M700,396.7H688.9l-5.48-13.84h-14l-5.74,13.08H652.53l8.69-20.25h30Zm-17.26,18.82a2.62,2.62,0,0,0,1.94-.76,2.52,2.52,0,0,0,.76-1.86v-5.74h-18v18.73a2.55,2.55,0,0,0,.8,1.94,2.68,2.68,0,0,0,1.9.76h26.88l-2.79,8H666.16a9.22,9.22,0,0,1-9.29-9.28v-28.1H696.1v15a9.21,9.21,0,0,1-9.27,9.28H674.27l2.95-8Zm30.71-35.78V425H703.7V379.74Zm13.25,47.67A8.85,8.85,0,0,1,726,431a9.42,9.42,0,0,1-2,2.91,9.24,9.24,0,0,1-6.59,2.7h-6.93l3.09-8.27h.67a2.59,2.59,0,0,0,1.92-.76,2.65,2.65,0,0,0,.75-1.94v-50h9.79Z" transform="translate(-18.36 -164.23)"/><path class="cls-1" d="M831.7,398.56a35.08,35.08,0,0,1-5.48,4.89,42,42,0,0,1-6.58,3.88q5.57.42,10.84.51t10,.08v7.17q-4.22.09-9,.09t-10-.17q-5.19-.17-10.49-.59t-10.36-1.27a141.64,141.64,0,0,1-16,1.86q-8.35.51-17.2.59v-7.68q3.38.09,7,0t7.55-.38a26.51,26.51,0,0,1-7.59-5.57h15.34q2.61.93,5.35,1.64t5.6,1.39a86.59,86.59,0,0,0,10.11-2.74,29.1,29.1,0,0,0,7.5-3.67H772.56l2.53-5.82h-7.76V379.15l30.54.08-1.6-3.63h14.51l1.6,3.54H832.2a9.21,9.21,0,0,1,3.63.72,8.83,8.83,0,0,1,2.91,2,9.63,9.63,0,0,1,1.94,3,9,9,0,0,1,.72,3.54v4.39h-9.53v5.82Zm4.3,28.82a9,9,0,0,1-.72,3.6,9.43,9.43,0,0,1-2,2.92,9.3,9.3,0,0,1-3,2,9.19,9.19,0,0,1-3.63.72H774.32v-19H836Zm-46.74-38.43-1.1,2.45,41.68.08v-3.21a2.59,2.59,0,0,0-2.62-2.62H779v3.29Zm35.95,35.19H785.12v6h37.38a2.65,2.65,0,0,0,1.94-.75,2.48,2.48,0,0,0,.76-1.83Z" transform="translate(-18.36 -164.23)"/><path class="cls-1" d="M954.72,436.19h-71.3v-7.85h29.79V383.79H886.37V376h65.39v7.76H924.93v44.55h29.78Z" transform="translate(-18.36 -164.23)"/><path class="cls-1" d="M1020,434.92l-23.29,1.86v-8.35l5.82-.51V393.24h-4.73v-8.35h4.73v-8.78h11.73v8.78h4.64v8.35h-4.64V427l5.74-.42Zm23.71-48-1.43,8.27h26.07V427.5a8.72,8.72,0,0,1-.76,3.63,9.8,9.8,0,0,1-2,3,9.26,9.26,0,0,1-3,2,9,9,0,0,1-3.54.72h-15.78l3-8.35H1054a2.59,2.59,0,0,0,2.62-2.61V403.53h-15.78L1035,436.78h-12.23l8.69-49.87H1020v-8.35h18.14l-1.27-3h13.75l1.35,3h18.9v8.35Z" transform="translate(-18.36 -164.23)"/><path class="cls-2" d="M101.55,244A79.6,79.6,0,0,0,221,312.79a86.47,86.47,0,0,1,79.48-3.49l14.26,6.61L250.11,204A79.61,79.61,0,0,0,101.55,244Zm28.34,10.64c7.52-5.51,7.62-15.82.22-21.56-1.41-1.09-1.93-2.25-1.32-3.88,1.47-3.9,3-7.78,4.68-11.59,1.08-2.41,2.1-2.77,4.67-2.38a12.92,12.92,0,0,0,14.59-14.94,3.37,3.37,0,0,1,1.89-4.1,51.39,51.39,0,0,1,12.29-5,3.23,3.23,0,0,1,3.59,1.26c.45.56.85,1.17,1.33,1.7a13,13,0,0,0,20.11-1.22c1.31-1.79,2.4-2.21,4.47-1.61a53.13,53.13,0,0,1,11.9,4.92,3.3,3.3,0,0,1,1.82,3.81,12.89,12.89,0,0,0,14.67,15.14c2.33-.43,3.46.07,4.42,2.21q2.46,5.47,4.55,11.1c.87,2.36.39,3.39-1.6,4.9a12.5,12.5,0,0,0-5.23,10.21,13.26,13.26,0,0,0,5.62,11.21,3.15,3.15,0,0,1,1.38,3.53A52.47,52.47,0,0,1,228.8,271a3.24,3.24,0,0,1-3.71,1.77,12.9,12.9,0,0,0-15.19,14.72c.4,2.24-.1,3.4-2.15,4.33-3.6,1.63-7.26,3.16-11,4.54-2.55.95-3.49.46-5.2-1.7a12.62,12.62,0,0,0-12.68-4.89,13.21,13.21,0,0,0-8.67,5.46,3.07,3.07,0,0,1-3.42,1.36A52.62,52.62,0,0,1,154,291.32a3.27,3.27,0,0,1-1.63-3.55c.13-.83.22-1.67.33-2.51l.16-.07a36.75,36.75,0,0,0-1.16-4.75,12.78,12.78,0,0,0-14-7.93c-2.18.32-3.27-.14-4.27-1.88a52.33,52.33,0,0,1-4.93-12A3.38,3.38,0,0,1,129.89,254.6Z" transform="translate(-18.36 -164.23)"/><path class="cls-2" d="M134.66,467.08H263.84a79.62,79.62,0,1,0-79.62-79.62A86.47,86.47,0,0,1,147.5,458ZM211,387.46a52.8,52.8,0,1,1,52.8,52.8A52.8,52.8,0,0,1,211,387.46Z" transform="translate(-18.36 -164.23)"/><path class="cls-2" d="M18.36,387.33a80,80,0,0,0,39.79,69.08,79.6,79.6,0,0,0,119.42-68.83,79.94,79.94,0,0,0-39.8-69.08A86.47,86.47,0,0,1,95,251.42l-1.41-15.65L29,347.64A79.51,79.51,0,0,0,18.36,387.33Zm26.81.13A52.8,52.8,0,1,1,98,440.26,52.8,52.8,0,0,1,45.17,387.46Z" transform="translate(-18.36 -164.23)"/><circle class="cls-2" cx="162.55" cy="79.61" r="28.58"/><path class="cls-2" d="M111,394.27c-3.34,0-4.9-.12-5.49.48s-.6,2.27-.6,5.61v8.12c0,5.37.6,7.76-6.93,7.76s-6.93-2.39-6.93-7.76v-8.12c0-3.35.24-5-.48-5.61s-2.27-.48-5.61-.48H76.84c-5.37,0-7.76.6-7.76-6.93s2.39-6.93,7.76-6.93H85c3.34,0,4.9.12,5.61-.6s.48-2.15.48-5.49V366.2c0-5.37-.6-7.76,6.93-7.76s6.93,2.39,6.93,7.76v8.12c0,3.35,0,4.78.6,5.49s2.15.6,5.49.6h8.12c5.37,0,7.76-.6,7.76,6.93s-2.39,6.93-7.76,6.93Z" transform="translate(-18.36 -164.23)"/><path class="cls-2" d="M292.07,387.45a6.51,6.51,0,0,1-6.27,6.73h-43.9a6.51,6.51,0,0,1-6.27-6.73h0a6.51,6.51,0,0,1,6.27-6.72h43.9a6.51,6.51,0,0,1,6.27,6.72Z" transform="translate(-18.36 -164.23)"/></svg>